<svg width="400" height="150" viewBox="0 0 400 150" xmlns="http://www.w3.org/2000/svg">
  <style>
    .logotype {
      font-family: 'Inter', sans-serif;
      font-size: 48px;
      font-weight: 600;
      letter-spacing: -1px;
    }
    .myce { fill: #2E2E2E; } /* Charcoal */
    .loom { fill: #A95C3D; } /* Burnt Sienna */
  </style>

  <g id="emblem" transform="translate(75, 75)">
    <g stroke="#2E2E2E" stroke-width="1.5" fill="none" stroke-linecap="round">
      <path d="M0 -50 C 10 -30, -15 -10, 0 0"/>
      <path d="M0 0 C 20 10, 30 25, 50 30"/>
      <path d="M50 30 C 45 40, 48 50, 40 50"/>
      <path d="M0 0 C -20 15, -40 5, -50 -10"/>
      <path d="M-50 -10 C -45 -20, -55 -30, -40 -45"/>
      <path d="M0 0 C 15 -15, 30 -25, 45 -40"/>
      <path d="M0 0 C -10 -20, -25 -40, -15 -50"/>
    </g>
    <g stroke="#A95C3D" stroke-width="2" fill="none" stroke-linecap="round">
      <path d="M-40 -50 L -40 50" />
      <path d="M-20 -50 L -20 50" />
      <path d="M0 -50 L 0 50" />
      <path d="M20 -50 L 20 50" />
      <path d="M40 -50 L 40 50" />
      <path d="M-50 -40 L 50 -40" />
      <path d="M-50 -20 L 50 -20" />
      <path d="M-50 0 L 50 0" />
      <path d="M-50 20 L 50 20" />
      <path d="M-50 40 L 50 40" />
    </g>
  </g>

  <text x="180" y="85" class="logotype">
    <tspan class="myce">myce</tspan><tspan class="loom">loom</tspan>
  </text>
</svg>